<?xml version="1.0" encoding="utf-8"?>
<svg width="151px" height="81px" viewBox="0 0 151 81" version="1.1" xmlns:xlink="http://www.w3.org/1999/xlink" xmlns="http://www.w3.org/2000/svg">
  <defs>
    <path d="M0 0L50 0L50 50L0 50L0 0Z" id="path_1" />
    <clipPath id="mask_1">
      <use xlink:href="#path_1" />
    </clipPath>
  </defs>
  <g id="Home-Icon">
    <g id="Group-2" transform="translate(50 0)">
      <g id="Home-icon">
        <path d="M0 0L50 0L50 50L0 50L0 0Z" id="Background" fill="none" fill-rule="evenodd" stroke="none" />
        <g clip-path="url(#mask_1)">
          <path d="M24.9999 1.05078C24.7824 1.05078 24.5658 1.11977 24.3808 1.25977L1.38079 19.2109C0.950786 19.5509 0.870864 20.1791 1.21086 20.6191C1.55086 21.0491 2.17907 21.1291 2.61907 20.7891L3.99993 19.7109L3.99993 46C3.99993 46.55 4.44993 47 4.99993 47L18.9999 47L18.9999 29L30.9999 29L30.9999 47L44.9999 47C45.5499 47 45.9999 46.55 45.9999 46L45.9999 19.7109L47.3808 20.7891C47.5708 20.9291 47.7799 21 47.9999 21C48.2999 21 48.589 20.8691 48.789 20.6191C49.129 20.1791 49.0491 19.5509 48.6191 19.2109L25.6191 1.25977C25.4341 1.11977 25.2174 1.05078 24.9999 1.05078L24.9999 1.05078ZM34.9999 5L34.9999 6.05078L40.9999 10.7305L40.9999 5L34.9999 5L34.9999 5Z" id="Shape" fill="#686868" fill-rule="evenodd" stroke="none" />
        </g>
      </g>
    </g>
    <g id="Home" fill="#686868" transform="translate(0 50)">
      <path d="M54.9559 23.0313L58.4715 23.0313L58.4715 5.96875L54.9559 5.96875L54.9559 12.8828L48.1004 12.8828L48.1004 5.96875L44.5848 5.96875L44.5848 23.0313L48.1004 23.0313L48.1004 15.7188L54.9559 15.7188L54.9559 23.0313ZM61.6684 13.2109Q60.9418 14.6875 60.9418 16.5742L60.9418 16.7266Q60.9418 19.75 62.5766 21.5078Q64.2113 23.2656 66.9535 23.2656Q69.6957 23.2656 71.3246 21.502Q72.9535 19.7383 72.9535 16.8203L72.9301 15.9531Q72.7426 13.2578 71.1195 11.6875Q69.4965 10.1172 66.9301 10.1172Q65.1254 10.1172 63.7602 10.9258Q62.3949 11.7344 61.6684 13.2109ZM78.3652 10.3516L78.4707 11.7695Q79.8184 10.1172 82.1152 10.1172Q84.5645 10.1172 85.4785 12.0508Q86.8145 10.1172 89.2871 10.1172Q91.3496 10.1172 92.3574 11.3184Q93.3652 12.5195 93.3652 14.9336L93.3652 23.0313L89.9668 23.0313L89.9668 14.9453Q89.9668 13.8672 89.5449 13.3691Q89.123 12.8711 88.0566 12.8711Q86.5332 12.8711 85.9473 14.3242L85.959 23.0313L82.5723 23.0313L82.5723 14.957Q82.5723 13.8555 82.1387 13.3633Q81.7051 12.8711 80.6621 12.8711Q79.2207 12.8711 78.5762 14.0664L78.5762 23.0313L75.1895 23.0313L75.1895 10.3516L78.3652 10.3516ZM97.4117 21.5547Q99.1637 23.2656 101.953 23.2656Q103.535 23.2656 104.836 22.6621Q106.136 22.0586 106.898 20.9805L105.234 19.1172Q104.132 20.5352 102.175 20.5352Q100.91 20.5352 100.084 19.7852Q99.2574 19.0352 99.0934 17.793L107.168 17.793L107.168 16.4102Q107.168 13.3984 105.673 11.7578Q104.179 10.1172 101.578 10.1172Q99.8434 10.1172 98.4898 10.9316Q97.1363 11.7461 96.398 13.252Q95.6598 14.7578 95.6598 16.668L95.6598 16.9961Q95.6598 19.8438 97.4117 21.5547ZM65.0082 19.5786Q64.3285 18.6221 64.3285 16.8146Q64.3285 14.7842 65.0082 13.8159Q65.6879 12.8477 66.9301 12.8477Q68.184 12.8477 68.8754 13.8218Q69.5668 14.7959 69.5668 16.5682Q69.5668 18.6455 68.8754 19.5903Q68.184 20.5352 66.9535 20.5352Q65.6879 20.5352 65.0082 19.5786ZM99.9312 13.5304Q100.558 12.8477 101.566 12.8477Q102.644 12.8477 103.23 13.4656Q103.816 14.0836 103.839 15.2136L103.839 15.4844L99.1285 15.4844Q99.3043 14.2131 99.9312 13.5304Z" />
    </g>
  </g>
</svg>