<?xml version="1.0" encoding="utf-8"?>
<svg width="151px" height="81px" viewBox="0 0 151 81" version="1.1" xmlns:xlink="http://www.w3.org/1999/xlink" xmlns="http://www.w3.org/2000/svg">
  <defs>
    <path d="M0 0L50 0L50 50L0 50L0 0Z" id="path_1" />
    <clipPath id="mask_1">
      <use xlink:href="#path_1" />
    </clipPath>
  </defs>
  <g id="Login-Icon">
    <g id="Login" transform="translate(0 50)">
      <g id="Login" fill="#FFFFFF">
        <path d="M87.0828 7.07031Q87.0828 6.3086 87.5926 5.81641Q88.1023 5.32422 88.9812 5.32422Q89.8484 5.32422 90.3641 5.81641Q90.8797 6.30859 90.8797 7.07031Q90.8797 7.84375 90.3582 8.33594Q89.8367 8.82813 88.9812 8.82813Q88.1258 8.82813 87.6043 8.33594Q87.0828 7.84375 87.0828 7.07031ZM50.1289 20.207L57.5938 20.207L57.5938 23.0313L46.6133 23.0313L46.6133 5.96875L50.1289 5.96875L50.1289 20.207ZM59.0094 16.5742Q59.0094 14.6875 59.7359 13.2109Q60.4625 11.7344 61.8277 10.9258Q63.193 10.1172 64.9977 10.1172Q67.5641 10.1172 69.1871 11.6875Q70.8102 13.2578 70.9977 15.9531L71.0211 16.8203Q71.0211 19.7383 69.3922 21.502Q67.7633 23.2656 65.0211 23.2656Q62.2789 23.2656 60.6441 21.5078Q59.0094 19.75 59.0094 16.7266L59.0094 16.5742ZM74.1535 11.8984Q72.7648 13.6797 72.7648 16.5977L72.7648 16.7383Q72.7648 19.6914 74.177 21.4785Q75.5891 23.2656 77.8742 23.2656Q79.7844 23.2656 80.9563 21.9414L80.9563 22.6211Q80.9563 23.9453 80.2063 24.666Q79.4563 25.3867 78.1086 25.3867Q76.3039 25.3867 75.0383 23.9688L73.5383 26.0313Q74.218 26.9102 75.5422 27.4668Q76.8664 28.0234 78.2609 28.0234Q80.1008 28.0234 81.4719 27.3789Q82.843 26.7344 83.5988 25.5039Q84.3547 24.2734 84.3547 22.6094L84.3547 10.3516L81.2844 10.3516L81.1438 11.5469Q79.9836 10.1172 77.8977 10.1172Q75.5422 10.1172 74.1535 11.8984ZM96.8422 11.8164L96.7367 10.3516L93.5492 10.3516L93.5492 23.0313L96.9359 23.0313L96.9359 14.0898Q97.6508 12.8711 99.0805 12.8711Q100.17 12.8711 100.639 13.3574Q101.108 13.8438 101.108 14.9219L101.108 23.0313L104.495 23.0313L104.495 14.8398Q104.471 12.4844 103.487 11.3008Q102.502 10.1172 100.487 10.1172Q98.2016 10.1172 96.8422 11.8164ZM87.282 23.0313L87.282 10.3516L90.6805 10.3516L90.6805 23.0313L87.282 23.0313ZM62.3961 16.8146Q62.3961 18.6221 63.0758 19.5786Q63.7555 20.5352 65.0211 20.5352Q66.2516 20.5352 66.943 19.5903Q67.6344 18.6455 67.6344 16.5682Q67.6344 14.7959 66.943 13.8218Q66.2516 12.8477 64.9977 12.8477Q63.7555 12.8477 63.0758 13.8159Q62.3961 14.7842 62.3961 16.8146ZM76.843 19.5552Q76.1516 18.5752 76.1516 16.8498Q76.1516 14.8664 76.8488 13.8687Q77.5461 12.8711 78.7648 12.8711Q80.2766 12.8711 80.9563 14.0331L80.9563 19.3732Q80.2883 20.5352 78.7414 20.5352Q77.5344 20.5352 76.843 19.5552Z" />
      </g>
    </g>
    <g id="Contacts-icon" transform="translate(51.599976 0)">
      <path d="M0 0L50 0L50 50L0 50L0 0Z" id="Background" fill="none" fill-rule="evenodd" stroke="none" />
      <g clip-path="url(#mask_1)">
        <path d="M31.851 30.5739C31.543 30.4763 29.6124 29.6049 30.8218 25.9315L30.8068 25.9315C33.9543 22.6938 36.3582 17.473 36.3582 12.3347C36.3582 4.43961 31.1073 0.300491 25 0.300491C18.8927 0.300491 13.6719 4.43961 13.6719 12.3347C13.6719 17.4955 16.0607 22.7314 19.2308 25.9691C20.4627 29.2067 18.2542 30.4087 17.796 30.5739C11.4032 32.8876 3.90625 37.1019 3.90625 41.2635C3.90625 42.3828 3.90625 41.7067 3.90625 42.826C3.90625 48.4901 14.8888 49.7822 25.0601 49.7822C35.2464 49.7822 46.0938 48.4901 46.0938 42.826C46.0938 41.7067 46.0938 42.3828 46.0938 41.2635C46.0938 36.9817 38.5592 32.7975 31.851 30.5739L31.851 30.5739Z" id="Shape" fill="#FFFFFF" stroke="none" />
      </g>
    </g>
  </g>
</svg>